# xmcd CD database file
#
# Track frame offsets:
#	150
#	33930
#	77170
#	117341
#	161102
#	175314
#	188572
#	202929
#	216247
#	237383
#	255876
#	279139
#	301438
#	312961
#	325309
#	337118
#
# Disc length: 4668 seconds
#
# Revision: 0
# Processed by: cddbd v1.5.2PL0 Copyright (c) Steve Scherf et al.
# Submitted via: CDex 1.70beta2
#
DISCID=dc123a10
DTITLE=Wardell Gray - Bebop Story Vol 5 19452-55 CD 047
DYEAR=2008
DGENRE=Jazz
TTITLE0=Donna Lee
TTITLE1=Keen And Peachy (Fine And Dandy)
TTITLE2=Lady Bird
TTITLE3=Out Of Nowhere
TTITLE4=The Man I Love
TTITLE5=Lavonne
TTITLE6=So Long Broadway
TTITLE7=Paul's Cause
TTITLE8=Milt's Tune
TTITLE9=Get Happy
TTITLE10=Neil's Blues
TTITLE11=The Champ
TTITLE12=Sweet Mouth
TTITLE13=Blues In The Closet
TTITLE14=Dat's It
TTITLE15=Hey There
EXTD=YEAR: 2008
EXTT0=
EXTT1=
EXTT2=
EXTT3=
EXTT4=
EXTT5=
EXTT6=
EXTT7=
EXTT8=
EXTT9=
EXTT10=
EXTT11=
EXTT12=
EXTT13=
EXTT14=
EXTT15=
PLAYORDER=
